<?xml version="1.0" encoding="UTF-8" standalone="no"?>
<svg
   xmlns:dc="http://purl.org/dc/elements/1.1/"
   xmlns:cc="http://creativecommons.org/ns#"
   xmlns:rdf="http://www.w3.org/1999/02/22-rdf-syntax-ns#"
   xmlns:svg="http://www.w3.org/2000/svg"
   xmlns="http://www.w3.org/2000/svg"
   xmlns:sodipodi="http://sodipodi.sourceforge.net/DTD/sodipodi-0.dtd"
   xmlns:inkscape="http://www.inkscape.org/namespaces/inkscape"
   sodipodi:docname="fmi-logo.svg"
   inkscape:version="1.0 (4035a4fb49, 2020-05-01)"
   id="svg8"
   version="1.1"
   viewBox="0 0 48.683331 30.162518"
   height="30.162518mm"
   width="48.683331mm">
  <defs
     id="defs2" />
  <sodipodi:namedview
     inkscape:window-maximized="1"
     inkscape:window-y="-9"
     inkscape:window-x="-9"
     inkscape:window-height="1001"
     inkscape:window-width="1920"
     fit-margin-bottom="0"
     fit-margin-right="0"
     fit-margin-left="0"
     fit-margin-top="0"
     showgrid="false"
     inkscape:document-rotation="0"
     inkscape:current-layer="layer1"
     inkscape:document-units="mm"
     inkscape:cy="19.209991"
     inkscape:cx="112.70983"
     inkscape:zoom="1.979899"
     inkscape:pageshadow="2"
     inkscape:pageopacity="0"
     borderopacity="1.0"
     bordercolor="#666666"
     pagecolor="#060606"
     id="base" />
  <metadata
     id="metadata5">
    <rdf:RDF>
      <cc:Work
         rdf:about="">
        <dc:format>image/svg+xml</dc:format>
        <dc:type
           rdf:resource="http://purl.org/dc/dcmitype/StillImage" />
        <dc:title></dc:title>
      </cc:Work>
    </rdf:RDF>
  </metadata>
  <g
     transform="translate(-35.70417,-107.68239)"
     id="layer1"
     inkscape:groupmode="layer"
     inkscape:label="Layer 1">
    <g
       style="opacity:0.997;fill:#ffffff"
       transform="translate(-56.149471,10.093836)"
       id="g849">
      <path
         id="path865"
         d="M 91.853641,112.6698 V 97.588553 h 24.341669 24.34166 V 112.6698 127.75105 H 116.19531 91.853641 Z m 29.881479,0.26459 0.026,-14.287504 h -1.56901 c -1.99147,0 -4.924,0.559004 -7.54083,1.437444 -7.03677,2.36217 -13.15303,7.67696 -16.525409,14.35995 -1.698359,3.36561 -2.920589,8.04499 -2.940073,11.25625 l -0.0092,1.52136 h 14.266282 14.26629 l 0.026,-14.2875 z m -13.7419,10.58333 c 0,-0.14552 0.16586,-0.26458 0.36857,-0.26458 0.20271,0 0.4324,-0.16634 0.51042,-0.36965 0.10377,-0.27043 -0.19044,-0.41922 -1.09618,-0.55435 -3.51448,-0.52433 -5.58446,-2.7 -5.59783,-5.88367 -0.0142,-3.37715 2.10802,-5.69729 5.75,-6.28634 1.15896,-0.18745 1.24443,-0.52396 0.23639,-0.93068 -0.38637,-0.15589 0.15155,-0.22927 1.68072,-0.22927 1.52916,0 2.06709,0.0734 1.68072,0.22927 -1.0295,0.41538 -0.90124,0.73331 0.3725,0.92335 1.79137,0.26728 2.96225,0.81612 4.09421,1.91913 1.16525,1.13545 1.59896,2.28463 1.58183,4.19131 -0.0292,3.25499 -2.07694,5.48712 -5.55998,6.0608 -1.18561,0.19527 -1.40495,0.72898 -0.36262,0.88235 0.31602,0.0465 0.57459,0.19533 0.57459,0.33073 0,0.1354 -0.9525,0.24618 -2.11667,0.24618 -1.23472,0 -2.11667,-0.11024 -2.11667,-0.26458 z m 1.05834,-7.28803 v -5.43595 l -0.99219,0.17499 c -2.77723,0.48981 -4.10104,2.09661 -4.10104,4.97769 0,2.63651 1.07086,4.23869 3.55389,5.31719 1.59674,0.69355 1.53934,0.88128 1.53934,-5.03392 z m 4.50483,4.77091 c 2.15964,-1.11679 2.96478,-4.55115 1.68254,-7.17698 -0.59408,-1.21659 -2.72769,-2.74132 -3.83602,-2.74132 h -0.76385 v 5.32549 5.32548 l 1.0861,-0.17368 c 0.59736,-0.0955 1.42141,-0.34707 1.83123,-0.55899 z m 11.28131,5.7231 c -0.76064,-0.50149 -1.95771,-1.84373 -2.50531,-2.80911 -0.24529,-0.43243 -0.30163,-0.1785 -0.3082,1.38907 l -0.008,1.91823 1.78594,-0.002 1.78594,-0.002 -0.75032,-0.49469 z m 15.15773,-3.53671 -0.0124,-4.0349 -0.46766,1.19063 c -1.01208,2.57668 -2.96499,4.67757 -5.70669,6.13908 l -1.34152,0.71512 3.77031,0.0125 3.77032,0.0125 -0.0124,-4.0349 z m -11.3647,0.52917 1e-5,-2.97657 -2.84428,0.0393 c -1.56435,0.0216 -2.92104,0.0514 -3.01485,0.0662 -0.19177,0.0302 0.0998,1.40304 0.51133,2.40808 0.40778,0.99572 2.23348,2.63642 3.39396,3.05003 1.98447,0.7073 1.95382,0.74787 1.95383,-2.58701 z m 3.80042,2.13858 c 3.52605,-1.37261 6.13581,-4.60485 6.64019,-8.224 l 0.17514,-1.25677 h -5.04329 -5.0433 v 5.17136 5.17137 l 0.99219,-0.1805 c 0.5457,-0.0993 1.57128,-0.40594 2.27907,-0.68146 z m -2.80824,-3.04142 c 0.23602,-0.0952 0.33073,-0.95428 0.33073,-2.99977 0,-2.04549 -0.0947,-2.90453 -0.33073,-2.99977 -0.1819,-0.0734 0.20505,-0.13345 0.8599,-0.13345 0.65484,0 1.04179,0.0601 0.85989,0.13345 -0.23023,0.0929 -0.33073,0.85778 -0.33073,2.51726 v 2.38381 l 1.74066,-2.07513 c 0.95735,-1.14132 1.90869,-2.28349 2.11407,-2.53815 0.20539,-0.25466 0.577,-0.46302 0.82581,-0.46302 0.35185,0 0.38182,0.0706 0.13488,0.3175 -0.50483,0.50484 -0.42454,5.09392 0.0983,5.61673 0.37798,0.37797 0.3149,0.41577 -0.69385,0.41577 -0.92393,0 -1.05791,-0.0623 -0.80056,-0.3724 0.19118,-0.23036 0.27922,-1.10571 0.23083,-2.29505 l -0.0782,-1.92265 -1.94686,2.29505 c -1.56864,1.84919 -2.08264,2.29099 -2.64583,2.27416 -0.38444,-0.0115 -0.55015,-0.0809 -0.36825,-0.15434 z M 93.917935,116.71833 C 97.2095,107.78449 104.98666,100.84689 114.47552,98.379985 l 1.85208,-0.481504 -12.10469,-0.02267 -12.104686,-0.02267 0.01862,12.766139 0.01862,12.76615 0.481635,-2.24896 c 0.264899,-1.23693 0.841278,-3.22509 1.280843,-4.41814 z m 31.602545,2.96293 c -0.0738,-0.38612 -0.003,-0.66146 0.16898,-0.66146 0.16828,0 0.29543,-0.4555 0.29543,-1.05833 0,-0.83512 -0.0976,-1.05636 -0.46302,-1.04896 -1.17661,0.0238 -2.70669,1.62429 -2.71024,2.8349 -0.002,0.54355 0.1216,0.59531 1.41678,0.59531 1.37041,0 1.41423,-0.0224 1.29207,-0.66146 z m 2.31649,-0.39687 c 0,-0.14552 -0.11906,-0.26459 -0.26458,-0.26459 -0.14552,0 -0.26458,0.11907 -0.26458,0.26459 0,0.14552 0.11906,0.26458 0.26458,0.26458 0.14552,0 0.26458,-0.11906 0.26458,-0.26458 z m 0.26459,-0.97514 c 0,-0.26397 -1.11203,-1.40611 -1.36904,-1.40611 -0.12015,0 -0.21846,0.35718 -0.21846,0.79375 0,0.70555 0.0882,0.79375 0.79375,0.79375 0.43656,0 0.79375,-0.0816 0.79375,-0.18139 z m -4.83849,-1.60455 c 0.38434,-0.28777 0.33204,-0.33073 -0.40261,-0.33073 -0.7779,0 -0.84366,0.0676 -0.83591,0.8599 0.008,0.82263 0.0255,0.83696 0.40261,0.33072 0.21681,-0.29104 0.59296,-0.67799 0.83591,-0.85989 z m 15.83042,-2.56133 c -0.43647,-4.07575 -2.10784,-7.45983 -5.17077,-10.4694 -1.25752,-1.23561 -2.72642,-2.36019 -3.8929,-2.98036 -2.01384,-1.070689 -5.35087,-2.046724 -6.99767,-2.046724 h -1.01601 v 8.589364 8.58937 l 8.63,0.0116 8.63,0.0116 -0.18265,-1.70548 z m -13.62947,-1.93659 c 0.15255,-0.25466 0.42145,-1.8652 0.59755,-3.57898 0.17611,-1.71378 0.41089,-3.14253 0.52174,-3.175 0.11085,-0.0325 0.83503,1.25065 1.60928,2.85138 l 1.40773,2.91041 1.13309,-2.38125 c 0.6232,-1.30968 1.24685,-2.6789 1.38589,-3.0427 0.39269,-1.02748 0.62266,-0.28062 1.00452,3.26223 0.29912,2.77526 0.40096,3.15564 0.89869,3.35667 0.44633,0.18027 0.33095,0.23016 -0.56314,0.24349 l -1.12448,0.0168 -0.0196,-1.38906 c -0.0108,-0.76398 -0.10009,-1.9229 -0.19844,-2.57536 l -0.17883,-1.1863 -1.16313,2.57536 c -0.63972,1.41645 -1.24753,2.57536 -1.35069,2.57536 -0.10316,0 -0.70573,-1.10133 -1.33905,-2.44739 l -1.15149,-2.4474 -0.19019,1.19063 c -0.30464,1.9071 -0.26229,3.38222 0.10132,3.52893 0.1819,0.0734 -0.11677,0.14286 -0.6637,0.15434 -0.87868,0.0185 -0.96215,-0.033 -0.71707,-0.44213 z m 14.61187,-6.74675 -0.0642,-7.474602 -7.07954,-0.06495 -7.07954,-0.06495 2.20501,0.769837 c 2.77017,0.967153 4.68864,2.226045 7.08584,4.649675 2.11621,2.13955 4.05921,5.60026 4.59602,8.18608 0.16822,0.8103 0.32718,1.47333 0.35324,1.4734 0.0261,7e-5 0.0185,-3.36344 -0.0168,-7.47448 z"
         style="fill:#ffffff;fill-opacity:1;stroke-width:0.264583" />
      <path
         id="path863"
         d="M 91.853641,112.66684 V 97.588553 h 24.341669 24.34166 v 14.948957 c 0,8.22193 -0.0893,14.94911 -0.19843,14.94929 -0.10914,1.8e-4 -0.17411,-2.11318 -0.14438,-4.69636 l 0.0541,-4.69668 -0.46465,1.34248 c -1.11092,3.20976 -3.28569,5.69688 -6.22437,7.11835 l -1.82605,0.88327 2.28524,-0.10111 c 1.25688,-0.0556 2.28524,-0.006 2.28524,0.10978 0,0.11599 -3.39328,0.2038 -7.54062,0.19513 -4.14735,-0.009 -7.54063,-0.10667 -7.54063,-0.21777 0,-0.1111 0.11241,-0.202 0.24979,-0.202 0.15339,0 0.25669,-5.54656 0.26767,-14.37076 l 0.0179,-14.370748 -1.65674,0.09668 c -14.12509,0.824258 -26.087961,12.534708 -26.841254,26.274898 -0.147769,2.69533 -0.17407,2.7912 -0.779517,2.84131 l -0.626588,0.0519 z m 34.131249,14.67822 c 0,-0.0255 -0.50618,-0.36639 -1.12485,-0.75745 -0.61866,-0.39105 -1.51163,-1.26673 -1.98437,-1.94594 l -0.85953,-1.23493 v 1.88817 c 0,1.58751 0.0737,1.90254 0.46302,1.97838 0.47641,0.0928 3.50573,0.15483 3.50573,0.0718 z m 2.64583,-3.63888 v -2.98653 l -3.06551,-0.0643 -3.06551,-0.0643 0.17818,0.86801 c 0.48954,2.38472 1.91413,4.09961 4.03408,4.85615 1.94507,0.69412 1.91876,0.72989 1.91876,-2.60905 z m 2.87737,2.48806 c 2.11674,-0.6588 3.69153,-1.60749 4.91341,-2.95996 1.22666,-1.35778 2.46336,-3.93381 2.69306,-5.60961 l 0.17142,-1.2507 h -5.06304 -5.06305 v 5.15937 c 0,5.83756 -0.19416,5.45218 2.3482,4.6609 z m -1.54205,-3.89977 c 0.40436,-1.06353 0.26514,-4.81142 -0.19585,-5.27241 -0.33496,-0.33496 -0.26494,-0.38351 0.55312,-0.38351 0.63896,0 0.89729,0.10511 0.81281,0.33073 -0.18546,0.49537 -0.31054,4.69681 -0.13972,4.69343 0.0813,-0.002 1.08854,-1.13271 2.23825,-2.51354 1.14971,-1.38084 2.27485,-2.51062 2.50031,-2.51062 0.31883,0 0.33937,0.0706 0.0924,0.3175 -0.20353,0.20353 -0.3175,1.24356 -0.3175,2.89727 0,2.1778 0.0721,2.62179 0.46302,2.84946 0.36603,0.21319 0.22067,0.27137 -0.69385,0.27773 -0.96413,0.007 -1.10547,-0.0539 -0.84832,-0.36375 0.19215,-0.23152 0.27924,-1.12638 0.23084,-2.37185 l -0.0777,-2.00006 -1.94979,2.37185 c -1.1786,1.43372 -2.14402,2.37185 -2.44085,2.37185 -0.42062,0 -0.4532,-0.0996 -0.22717,-0.69408 z m -36.371648,-4.5528 c 1.778555,-5.29822 5.587441,-10.63782 10.036958,-14.07059 3.14771,-2.42844 7.74005,-4.599544 11.37745,-5.378871 1.74177,-0.373179 1.13714,-0.397172 -10.52131,-0.417503 l -12.369266,-0.02157 0.02374,13.030734 c 0.02202,12.08711 0.0509,12.88042 0.398744,10.95514 0.20625,-1.14157 0.680407,-2.98537 1.05368,-4.09734 z m 32.000688,2.09415 c -0.0885,-0.2788 -0.037,-0.58348 0.11446,-0.67707 0.15145,-0.0936 0.27535,-0.6394 0.27535,-1.2129 0,-0.87233 -0.088,-1.04271 -0.53847,-1.04271 -1.13255,0 -2.22338,1.12694 -2.75313,2.84427 -0.17664,0.57262 -0.12178,0.59531 1.43952,0.59531 1.47898,0 1.60887,-0.045 1.46227,-0.5069 z m 2.24189,-0.41914 c 0.26977,-0.32505 0.25169,-0.39688 -0.0999,-0.39688 -0.2361,0 -0.42927,0.1786 -0.42927,0.39688 0,0.21828 0.045,0.39687 0.0999,0.39687 0.0549,0 0.24812,-0.17859 0.42927,-0.39687 z m 0.26459,-1.19063 c 0,-0.14552 -0.23813,-0.50271 -0.52917,-0.79375 -0.7399,-0.7399 -1.05833,-0.66029 -1.05833,0.26459 0,0.70555 0.0882,0.79375 0.79375,0.79375 0.43656,0 0.79375,-0.11907 0.79375,-0.26459 z m -5.15938,-1.05833 0.76046,-0.79375 h -0.84325 c -0.76055,0 -0.84325,0.0778 -0.84325,0.79375 0,0.43656 0.0373,0.79375 0.0828,0.79375 0.0455,0 0.425,-0.35719 0.84325,-0.79375 z m 5.68854,-0.52917 c 0,-0.14552 -0.12609,-0.26458 -0.2802,-0.26458 -0.1541,0 -0.20661,0.11906 -0.11667,0.26458 0.0899,0.14552 0.21603,0.26459 0.2802,0.26459 0.0642,0 0.11667,-0.11907 0.11667,-0.26459 z m 10.58334,-1.80976 c 0,-1.63917 -0.96596,-4.94843 -2.04312,-6.99948 -1.21643,-2.31626 -3.78581,-5.10173 -5.99002,-6.49382 -2.1535,-1.360058 -5.16527,-2.427128 -7.37884,-2.614322 l -1.78594,-0.151031 v 8.637333 8.63733 h 8.59896 8.59896 z m -13.78032,-2.52937 c 0.16906,-0.20371 0.42299,-1.48363 0.56427,-2.84427 0.50315,-4.84543 0.35452,-4.75478 2.10391,-1.28326 l 1.53331,3.0427 1.40087,-3.0016 c 1.56491,-3.35308 1.63984,-3.34954 1.93105,0.0912 0.27523,3.25174 0.42884,3.85116 1.05475,4.11568 0.44374,0.18754 0.3417,0.22489 -0.4851,0.17757 -1.0205,-0.0584 -1.04904,-0.0868 -1.12557,-1.11825 -0.0432,-0.58209 -0.15483,-1.71318 -0.24809,-2.51354 l -0.16956,-1.45521 -1.24891,2.62478 c -1.23792,2.60167 -1.25253,2.61914 -1.66002,1.98437 -0.22612,-0.35222 -0.80672,-1.53232 -1.29022,-2.62243 -0.8355,-1.88371 -0.88751,-1.94278 -1.04844,-1.19063 -0.31407,1.46793 -0.25326,4.046 0.0988,4.18805 0.1819,0.0734 -0.13034,0.14286 -0.69386,0.15434 -0.84937,0.0173 -0.97202,-0.0424 -0.71719,-0.34949 z m 14.83049,-6.77337 0.0192,-7.672914 -7.3477,0.02366 c -6.50709,0.02095 -7.20525,0.06288 -6.10256,0.366496 6.0193,1.657349 10.99885,6.666918 12.70134,12.777878 0.33308,1.19559 0.62921,2.17469 0.65807,2.17579 0.0289,10e-4 0.0611,-3.4508 0.0717,-7.67091 z m -46.690798,21.96042 c 0.08994,-0.14552 0.275558,-0.26458 0.41249,-0.26458 0.136933,0 0.248969,0.11906 0.248969,0.26458 0,0.14552 -0.185621,0.26458 -0.41249,0.26458 -0.22687,0 -0.338906,-0.11906 -0.248969,-0.26458 z m 0.926042,-0.0156 c 0,-0.15411 0.119063,-0.20661 0.264583,-0.11668 0.145521,0.0899 0.264584,0.21603 0.264584,0.2802 0,0.0642 -0.119063,0.11667 -0.264584,0.11667 -0.14552,0 -0.264583,-0.12609 -0.264583,-0.2802 z m 23.834546,0.18311 c 0.24942,-0.21965 2.60287,-0.34771 2.47108,-0.13445 -0.0787,0.12735 -0.69171,0.23154 -1.36221,0.23154 -0.67051,0 -1.1695,-0.0437 -1.10887,-0.0971 z m 19.16025,-0.0369 c 0.61801,-0.21543 2.24895,-0.2716 2.24895,-0.0775 0,0.1163 -0.56554,0.20205 -1.25677,0.19056 -0.69122,-0.0115 -1.13771,-0.0624 -0.99218,-0.11311 z m -29.50105,-4.06847 c 0,-0.12855 0.23813,-0.296 0.52917,-0.37211 0.91012,-0.238 0.58009,-0.64936 -0.67158,-0.83706 -3.54362,-0.5314 -5.65942,-2.73492 -5.67261,-5.90779 -0.0126,-3.03475 2.05359,-5.53443 4.98176,-6.02689 2.1111,-0.35504 2.43309,-0.66806 1.16399,-1.13157 -0.59823,-0.2185 -0.35254,-0.26946 1.38179,-0.28664 2.02156,-0.02 2.08379,-0.003 1.49441,0.40987 -0.73362,0.51384 -0.36916,0.87823 0.89412,0.89392 0.97057,0.0121 2.95464,0.88403 3.79606,1.66831 2.18432,2.03601 2.18742,6.5641 0.006,8.56961 -0.81658,0.75069 -2.73236,1.59506 -4.12383,1.81757 -0.77982,0.1247 -1.0529,0.2798 -0.95264,0.54107 0.0773,0.20145 0.3589,0.36627 0.62579,0.36627 0.26688,0 0.55883,0.11906 0.64877,0.26458 0.10384,0.16803 -0.61462,0.26458 -1.96877,0.26458 -1.17274,0 -2.13227,-0.10517 -2.13227,-0.23372 z m 1.05834,-7.34072 v -5.45777 l -1.12313,0.17959 c -0.61772,0.0988 -1.48052,0.38833 -1.91733,0.64344 -2.40609,1.40523 -2.91153,5.41347 -1.00101,7.93818 0.61442,0.81194 2.91421,2.14553 3.71074,2.15175 0.25398,0.002 0.33073,-1.26398 0.33073,-5.45519 z m 5.02223,4.43821 c 1.13934,-0.91587 1.56947,-1.75179 1.76922,-3.43829 0.346,-2.92142 -1.56605,-5.67361 -4.34406,-6.25282 l -0.85989,-0.17929 v 5.48095 5.48094 l 1.25191,-0.17159 c 0.78752,-0.10794 1.59724,-0.44918 2.18282,-0.9199 z"
         style="fill:#ffffff;fill-opacity:1;stroke-width:0.264583" />
      <path
         id="path861"
         d="M 121.75156,113.09764 V 98.356026 l -1.65365,0.166638 c -0.9095,0.09165 -2.36802,0.283477 -3.24114,0.426279 -12.96448,2.120377 -23.24405,13.701977 -23.744074,26.751537 -0.06343,1.65536 -0.111944,1.7859 -0.663743,1.78594 l -0.595312,5e-5 V 112.53751 97.588553 h 24.341669 24.34166 v 14.948957 c 0,8.22193 -0.0893,14.9491 -0.19843,14.94927 -0.10914,1.8e-4 -0.16889,-2.17271 -0.13278,-4.82864 l 0.0657,-4.82896 -0.60552,1.75783 c -1.09179,3.16953 -3.26204,5.56532 -6.39859,7.06357 -1.59418,0.76149 -1.97975,0.83589 -4.33208,0.83589 -2.39012,0 -2.66964,-0.0563 -3.75844,-0.75647 -1.32661,-0.85315 -2.10436,-1.65482 -2.7314,-2.81541 -0.42306,-0.78304 -0.42832,-0.76424 -0.38978,1.3939 0.0215,1.2032 -0.0381,2.26484 -0.13249,2.3592 -0.0944,0.0944 -0.17156,-6.46217 -0.17156,-14.57005 z m 6.90932,13.39664 c 0.10441,-0.68703 0.16808,-5.03329 0.0786,-5.36778 -0.0886,-0.3313 -0.67381,-0.4187 -3.1515,-0.47066 -3.39571,-0.0712 -3.32429,-0.11938 -2.65141,1.78776 0.87359,2.47601 2.83881,4.10191 5.0988,4.21843 0.32742,0.0169 0.60888,-0.0586 0.62547,-0.16775 z m 2.88587,-0.22461 c 3.92216,-1.16476 7.13984,-4.81971 7.59012,-8.62158 l 0.15089,-1.27412 h -5.06393 -5.06394 v 5.15937 c 0,5.87015 -0.1863,5.50047 2.38686,4.73633 z m -1.60242,-3.79289 c 0.3578,-0.66855 0.35536,-5.12176 -0.003,-5.48011 -0.19279,-0.1928 -0.0321,-0.28385 0.52901,-0.2998 0.71841,-0.0204 0.77603,0.0329 0.53081,0.49107 -0.1513,0.2827 -0.24052,1.49512 -0.19828,2.69428 l 0.0768,2.18029 2.2202,-2.71198 c 1.22111,-1.49159 2.29268,-2.71211 2.38125,-2.71227 0.0886,-1.7e-4 0.11979,1.27294 0.0694,2.82913 -0.0777,2.39673 -0.0247,2.87839 0.34608,3.14955 0.37363,0.2732 0.30953,0.31656 -0.43747,0.29591 l -0.87525,-0.0242 0.0869,-1.48365 c 0.0478,-0.81601 0.0478,-1.87927 0,-2.36281 l -0.0869,-0.87915 -1.97635,2.41276 c -1.17046,1.42892 -2.17223,2.41276 -2.45671,2.41276 -0.39292,0 -0.4305,-0.0932 -0.20646,-0.51177 z m -36.243392,-4.89781 c 2.751667,-8.26876 9.630012,-15.24693 17.996452,-18.257644 1.09141,-0.39275 2.69875,-0.871807 3.57188,-1.064573 1.40285,-0.309717 0.14876,-0.353573 -10.78178,-0.37705 l -12.369266,-0.02657 0.01862,13.030737 0.01862,13.03072 0.486698,-2.30824 c 0.267683,-1.26954 0.744136,-3.08186 1.058784,-4.02738 z m 32.114132,1.77156 c 0.0902,-0.5457 0.16531,-1.37083 0.16691,-1.83361 0.003,-0.81765 -0.0206,-0.8347 -0.8273,-0.60333 -1.06867,0.3065 -1.79753,0.96488 -2.24902,2.03157 -0.55573,1.31299 -0.48357,1.39756 1.19253,1.39756 h 1.55288 z m 2.0219,0.0661 c 0.26977,-0.32505 0.25169,-0.39688 -0.0999,-0.39688 -0.2361,0 -0.42927,0.1786 -0.42927,0.39688 0,0.21828 0.045,0.39687 0.0999,0.39687 0.0549,0 0.24812,-0.17859 0.42927,-0.39687 z m -0.79375,-0.13229 c 0,-0.14552 -0.11906,-0.26459 -0.26458,-0.26459 -0.14552,0 -0.26458,0.11907 -0.26458,0.26459 0,0.14552 0.11906,0.26458 0.26458,0.26458 0.14552,0 0.26458,-0.11906 0.26458,-0.26458 z m 1.05834,-1.05834 c 0,-0.14552 -0.23813,-0.50271 -0.52917,-0.79375 -0.7399,-0.7399 -1.05833,-0.66029 -1.05833,0.26459 0,0.70555 0.0882,0.79375 0.79375,0.79375 0.43656,0 0.79375,-0.11907 0.79375,-0.26459 z m -5.17602,-0.99351 0.7771,-0.85857 h -0.84325 c -0.79463,0 -0.84325,0.0559 -0.84325,0.97014 0,0.53357 0.0298,0.91993 0.0662,0.85857 0.0364,-0.0614 0.41584,-0.49792 0.84325,-0.97014 z m 5.83748,-0.59399 c -0.0899,-0.14552 -0.28259,-0.26458 -0.42811,-0.26458 -0.14552,0 -0.191,0.11906 -0.10106,0.26458 0.0899,0.14552 0.28258,0.26459 0.4281,0.26459 0.14552,0 0.191,-0.11907 0.10107,-0.26459 z m 4.60243,-0.77784 5.92536,-0.0159 -0.15619,-1.78594 c -0.34642,-3.9611 -2.32487,-7.79579 -5.60034,-10.85471 -2.85219,-2.66363 -6.33921,-4.237261 -10.26137,-4.630766 l -1.25677,-0.12609 v 8.684926 8.68492 l 1.38906,0.08 c 0.76399,0.044 1.98438,0.0574 2.71198,0.0297 0.72761,-0.0276 3.98933,-0.0574 7.24827,-0.0661 z m -7.96188,-3.41766 c 0.21613,-0.13709 0.4774,-1.42497 0.70037,-3.45239 0.19561,-1.77856 0.41978,-3.29788 0.49816,-3.37626 0.0784,-0.0784 0.76379,1.11983 1.52314,2.6627 1.21386,2.46634 1.8284,3.33138 1.8284,2.57368 0,-0.45719 2.40075,-5.39342 2.55035,-5.24382 0.0841,0.0841 0.30482,1.55036 0.49039,3.25827 0.26394,2.42908 0.44153,3.18143 0.81557,3.45493 0.43389,0.31727 0.40175,0.34964 -0.34712,0.34964 -0.80966,0 -0.82832,-0.0288 -0.98602,-1.52135 -0.0884,-0.83675 -0.22807,-2.05714 -0.31035,-2.71198 l -0.1496,-1.19063 -1.20596,2.57969 c -0.66328,1.41883 -1.28861,2.57969 -1.38963,2.57969 -0.10102,0 -0.70526,-1.07949 -1.34276,-2.39887 -1.15598,-2.39242 -1.15969,-2.39655 -1.38216,-1.53802 -0.12268,0.47346 -0.18413,1.61273 -0.13653,2.53171 l 0.0865,1.67087 -0.79375,-0.005 c -0.52091,-0.003 -0.67526,-0.0798 -0.44903,-0.22326 z m 14.86882,-6.78471 v -7.805204 l -7.34219,0.02366 c -6.63669,0.02139 -7.21781,0.05781 -6.04786,0.379042 6.03103,1.655941 11.36599,7.240232 12.81482,13.413722 0.23157,0.9867 0.45572,1.79399 0.49813,1.79399 0.0424,0 0.0771,-3.51234 0.0771,-7.80521 z m -31.69604,17.5541 c 0.75707,-0.57106 0.63012,-0.6872 -1.11247,-1.01767 -3.28333,-0.62267 -5.29149,-2.83406 -5.29149,-5.82702 0,-1.35836 0.67381,-3.14378 1.53163,-4.05839 0.80403,-0.85725 3.06096,-2.01428 3.93684,-2.01822 1.36781,-0.006 1.8548,-0.63488 0.81538,-1.05268 -0.43365,-0.1743 -0.0564,-0.23928 1.38907,-0.23928 1.4455,0 1.82271,0.065 1.38906,0.23928 -1.18865,0.47778 -0.73603,0.84545 1.46179,1.18742 1.61701,0.2516 3.50525,1.60253 4.24587,3.03767 0.52209,1.0117 0.59749,1.48134 0.50171,3.12513 -0.0936,1.60687 -0.24448,2.12218 -0.89076,3.0427 -0.92691,1.32024 -2.41596,2.20111 -4.33654,2.56534 -0.7726,0.14652 -1.47316,0.33483 -1.55679,0.41846 -0.21332,0.21332 0.80125,0.91641 1.07672,0.74616 0.12408,-0.0767 0.2256,-0.0398 0.2256,0.082 0,0.12177 -0.89667,0.2214 -1.99261,0.2214 -1.93714,0 -1.97591,-0.0126 -1.39301,-0.45227 z m 0.47521,-6.97076 v -5.42396 l -0.72761,0.006 c -0.93208,0.007 -2.70285,0.81875 -3.33245,1.52681 -0.64221,0.72225 -1.20587,2.3387 -1.21852,3.49446 -0.0252,2.30452 1.16462,4.24242 3.23359,5.26655 2.12937,1.05401 2.04499,1.25496 2.04499,-4.86968 z m 4.34274,4.90645 c 3.81646,-1.94574 3.21299,-8.17601 -0.96081,-9.9195 -1.87696,-0.78405 -1.79443,-1.0146 -1.79443,5.01305 v 5.42396 h 0.87009 c 0.47856,0 1.32688,-0.23288 1.88515,-0.51751 z"
         style="fill:#ffffff;fill-opacity:1;stroke-width:0.264583" />
      <path
         id="path859"
         d="M 91.853641,112.53751 V 97.588553 h 24.341669 24.34166 l -0.0607,5.886977 -0.0607,5.88698 -0.0767,-5.75469 -0.0767,-5.754684 -7.46932,0.01741 c -6.9528,0.01621 -7.3727,0.04342 -6.07218,0.393519 6.23154,1.677516 11.40122,7.111945 12.99346,13.658865 0.71187,2.92706 0.71402,5.20742 0.007,7.3839 -1.10753,3.40918 -3.21132,5.77782 -6.46829,7.28264 -1.75352,0.81017 -2.17284,0.897 -4.33198,0.897 -3.17529,0 -4.58931,-0.72385 -6.1396,-3.14291 l -0.74246,-1.15854 -0.0897,2.21687 c -0.0493,1.21928 -0.11392,-4.36133 -0.14354,-12.40136 l -0.0538,-14.618229 -0.72761,0.0016 c -1.70522,0.0037 -6.09536,0.843748 -8.34852,1.597564 -10.80346,3.614395 -18.256325,12.997075 -19.547518,24.609065 -0.277182,2.49276 -0.388312,2.89598 -0.798145,2.89598 -0.452828,0 -0.476126,-0.73149 -0.476126,-14.94896 z m 36.984189,11.17865 -0.0748,-2.97657 -3.14044,-0.0776 -3.14044,-0.0776 0.18596,0.99129 c 0.53046,2.82758 2.89859,5.07704 5.37598,5.10658 l 0.86856,0.0104 z m 3.90035,2.15769 c 2.051,-0.76738 4.37484,-2.97613 5.46849,-5.19764 0.7326,-1.48812 0.86934,-2.0841 0.96147,-4.19039 0.17835,-4.07786 -0.87119,-7.58895 -3.19702,-10.69518 -2.93171,-3.91542 -6.55404,-6.167082 -11.30915,-7.029836 -1.0914,-0.198022 -2.1332,-0.364194 -2.3151,-0.369271 -0.25809,-0.0072 -0.33073,1.908487 -0.33073,8.722017 0,8.13588 0.0316,8.73183 0.46302,8.73967 0.44097,0.008 0.44097,0.0252 0,0.3599 -0.26234,0.19914 -0.46302,0.70006 -0.46302,1.15575 v 0.80427 l 0.92604,-0.92605 c 0.50933,-0.50932 0.92604,-1.01705 0.92604,-1.12828 0,-0.11124 3.39329,-0.22403 7.54063,-0.25065 4.14734,-0.0266 7.54063,0.0465 7.54063,0.16256 0,0.11603 -2.20266,0.20093 -4.89479,0.18868 l -4.8948,-0.0223 -0.0305,0.61758 c -0.0168,0.33968 -0.0305,1.09384 -0.0305,1.67593 0,0.58208 0.0137,2.68089 0.0305,4.66402 l 0.0305,3.60569 1.0556,-0.16879 c 0.58057,-0.0928 1.71578,-0.41581 2.52269,-0.71771 z m -2.40242,-3.1025 c -0.13741,-0.0988 -0.24983,-1.45974 -0.24983,-3.02427 0,-2.35203 0.0687,-2.84465 0.39688,-2.84487 0.33145,-2.2e-4 0.38275,0.42383 0.31119,2.57256 -0.10084,3.0283 -0.22648,3.05433 2.73723,-0.56699 l 1.84637,-2.25605 0.0756,2.82197 c 0.0416,1.55209 0.18029,2.94811 0.30823,3.10227 0.15265,0.18394 0.0168,0.28029 -0.3952,0.28029 -0.61942,0 -0.62666,-0.031 -0.54176,-2.3151 0.0473,-1.27331 -0.002,-2.31511 -0.10898,-2.31511 -0.10727,0 -0.89515,0.84512 -1.75085,1.87804 -0.85569,1.03292 -1.74104,2.09604 -1.96743,2.36248 -0.2264,0.26644 -0.52405,0.40359 -0.66146,0.30478 z m -4.91048,-10.34732 c 0.21796,-0.1347 0.47702,-1.40919 0.7017,-3.45211 0.1959,-1.78122 0.40844,-3.29084 0.47232,-3.35472 0.0639,-0.0639 0.76726,1.22893 1.56306,2.87292 l 1.44692,2.98906 1.12357,-2.38125 c 0.61797,-1.30969 1.24824,-2.67891 1.40062,-3.04271 0.27644,-0.66002 0.2775,-0.65944 0.48477,0.26458 0.11424,0.50933 0.29118,1.92367 0.3932,3.14299 0.13395,1.60107 0.31794,2.34942 0.66229,2.69377 0.45936,0.45936 0.44905,0.47603 -0.28192,0.45524 -0.73958,-0.021 -0.76277,-0.0657 -0.91858,-1.76772 -0.36113,-3.94503 -0.32569,-3.92348 -1.675,-1.01855 -0.65903,1.41883 -1.27562,2.57969 -1.3702,2.57969 -0.0946,0 -0.72939,-1.15563 -1.41068,-2.56807 -0.68129,-1.41244 -1.24513,-2.45423 -1.25298,-2.3151 -0.008,0.13913 -0.11504,1.20546 -0.23822,2.36963 -0.13003,1.22895 -0.12446,2.23849 0.0133,2.40716 0.16269,0.19921 -0.0294,0.29807 -0.61122,0.31461 -0.5318,0.0151 -0.71949,-0.0556 -0.50292,-0.18942 z m -32.229478,6.92406 c 2.34843,-8.3693 8.121658,-15.21287 16.009888,-18.97809 1.69241,-0.807821 5.55732,-2.051614 7.2542,-2.334521 0.3638,-0.06065 -4.96424,-0.126494 -11.8401,-0.146312 l -12.501566,-0.03603 0.03226,13.295313 c 0.02068,8.52136 0.113508,12.7391 0.258526,11.74627 0.124444,-0.85197 0.478499,-2.44795 0.786788,-3.54663 z m 32.524508,0.33317 c 0,-0.3638 0.10898,-0.66146 0.24218,-0.66146 0.25984,0 0.21355,-2.01371 -0.0524,-2.27966 -0.31679,-0.31678 -2.18054,0.84453 -2.76598,1.72348 -1.02793,1.54329 -0.85124,1.8791 0.9887,1.8791 1.51694,0 1.5875,-0.0294 1.5875,-0.66146 z m 2.11666,-0.26458 c 0.26977,-0.32505 0.25169,-0.39688 -0.0999,-0.39688 -0.2361,0 -0.42927,0.1786 -0.42927,0.39688 0,0.21828 0.045,0.39687 0.0999,0.39687 0.0549,0 0.24812,-0.17859 0.42927,-0.39687 z m -0.84829,-0.33073 c -0.0515,-0.30679 0.0935,-0.4634 0.42974,-0.46414 0.69891,-0.002 0.83132,-0.58722 0.27241,-1.20482 -0.81469,-0.90021 -1.17025,-0.6473 -1.13744,0.80906 0.0164,0.72761 0.13853,1.32292 0.27142,1.32292 0.13288,0 0.20663,-0.20836 0.16387,-0.46302 z m 1.80889,-2.58505 c -0.0897,-0.23378 -0.28879,-0.34738 -0.44241,-0.25244 -0.19181,0.11855 -0.18058,0.29157 0.0358,0.55233 0.38444,0.46324 0.62993,0.28217 0.40657,-0.29989 z m 11.5166,10.19182 c 0,-0.3638 0.0601,-0.51263 0.13345,-0.33073 0.0734,0.1819 0.0734,0.47956 0,0.66146 -0.0734,0.1819 -0.13345,0.0331 -0.13345,-0.33073 z m 0.0549,-3.30729 c 8e-4,-1.45521 0.0451,-2.01677 0.0987,-1.2479 0.0536,0.76886 0.0531,1.95948 -0.001,2.64583 -0.0543,0.68634 -0.0982,0.0573 -0.0975,-1.39793 z m -31.85335,0.0257 c 0.76354,-0.34035 0.66244,-0.9157 -0.19172,-1.09104 -3.08865,-0.63404 -4.3014,-1.30267 -5.22679,-2.88173 -2.2537,-3.84565 0.12772,-8.53345 4.60437,-9.06364 1.4599,-0.1729 1.81634,-0.70955 0.75471,-1.13627 -0.43365,-0.17431 -0.0564,-0.23929 1.38907,-0.23929 1.4455,0 1.82271,0.065 1.38906,0.23929 -1.05325,0.42335 -0.70666,0.96319 0.72746,1.13304 3.03493,0.35944 5.24599,2.33596 5.49339,4.91066 0.17559,1.82743 -0.0777,2.93072 -0.98849,4.30577 -1.09057,1.64646 -2.76421,2.50285 -5.23236,2.67738 -0.70868,0.0501 -0.7823,0.58803 -0.13229,0.96663 0.25466,0.14832 0.40349,0.27818 0.33073,0.28857 -0.0728,0.0104 -0.87946,0.0438 -1.79266,0.0742 -1.16991,0.039 -1.50207,-0.0153 -1.12448,-0.18356 z m 0.53589,-7.16947 v -5.42396 l -0.72761,0.006 c -0.97085,0.008 -2.71127,0.83268 -3.40293,1.61293 -0.73221,0.82598 -1.16113,2.15162 -1.16113,3.5886 0,2.20499 1.28593,4.20309 3.30729,5.13895 2.07241,0.95949 1.98438,1.17785 1.98438,-4.92234 z m 4.508,4.82864 c 1.49959,-0.7562 2.37116,-2.34266 2.37116,-4.31606 0,-2.58942 -0.94652,-4.24688 -3.01344,-5.27687 -2.38975,-1.19086 -2.27822,-1.4241 -2.27822,4.76429 v 5.42396 h 0.86998 c 0.47849,0 1.40122,-0.26789 2.05052,-0.59532 z m 26.73372,-1.14652 c 0.0127,-0.30823 0.0754,-0.37092 0.15985,-0.15986 0.0764,0.191 0.067,0.4192 -0.0209,0.50712 -0.0879,0.0879 -0.15045,-0.0684 -0.13896,-0.34726 z m 0,-1.05834 c 0.0127,-0.30822 0.0754,-0.37092 0.15985,-0.15985 0.0764,0.19099 0.067,0.4192 -0.0209,0.50712 -0.0879,0.0879 -0.15045,-0.0683 -0.13896,-0.34727 z m 0.0209,-6.46024 c 0,-0.3638 0.0601,-0.51263 0.13345,-0.33073 0.0734,0.1819 0.0734,0.47956 0,0.66146 -0.0734,0.1819 -0.13345,0.0331 -0.13345,-0.33073 z m 0.025,-1.71979 c 0.003,-0.58209 0.0571,-0.78906 0.1204,-0.45994 0.0633,0.32912 0.0609,0.80537 -0.005,1.05834 -0.0662,0.25296 -0.11801,-0.0163 -0.11507,-0.5984 z"
         style="fill:#ffffff;fill-opacity:1;stroke-width:0.264583" />
      <path
         id="path857"
         d="M 91.853641,112.53751 V 97.588553 l 12.236979,0.06341 12.23698,0.06341 -12.10469,0.07155 -12.104686,0.07155 0.03603,13.424937 c 0.01982,7.38371 0.08074,13.12728 0.135376,12.76348 0.762482,-5.07681 2.21739,-9.18206 4.540203,-12.81091 2.030847,-3.17272 5.700987,-6.8403 8.935817,-8.92958 2.91359,-1.88181 7.54589,-3.733916 10.22913,-4.089861 1.03487,-0.13728 1.24738,-0.233405 0.85499,-0.386741 -0.28719,-0.11223 1.59822,-0.212422 4.1898,-0.22265 2.69224,-0.01063 4.64956,0.08238 4.56638,0.216976 -0.0801,0.129564 0.29985,0.315352 0.84428,0.41286 0.54443,0.09751 2.11937,0.722238 3.49988,1.388288 2.13673,1.030898 2.845,1.551808 4.7625,3.502658 2.7229,2.77025 4.00285,5.03162 4.90938,8.67375 0.75405,3.02947 0.81291,4.84692 0.22388,6.91282 -1.02136,3.58225 -3.2731,6.36159 -6.18806,7.63795 -0.80037,0.35046 -1.66195,0.74898 -1.91464,0.88561 -0.79543,0.43009 -4.88885,0.30056 -5.83756,-0.18472 -1.50981,-0.77228 -2.7643,-1.92481 -3.32197,-3.05195 l -0.54559,-1.10273 -0.0888,2.36005 c -0.0489,1.29803 -0.11332,-4.21815 -0.14324,-12.25818 l -0.0544,-14.618228 -0.8599,0.0016 c -1.66292,0.003 -5.90901,0.772218 -7.94121,1.438594 -7.30387,2.394994 -13.435037,7.667664 -16.949347,14.576064 -1.706409,3.35444 -3.082302,8.7446 -3.08757,12.09576 -0.0013,0.81528 -0.09591,0.99219 -0.530727,0.99219 -0.522922,0 -0.529166,-0.17639 -0.529166,-14.94896 z m 37.092649,12.50156 0.051,-1.65364 0.0948,1.68775 0.0948,1.68776 1.24326,-0.16691 c 1.78319,-0.2394 4.31498,-1.56824 5.74884,-3.01736 2.2639,-2.288 3.32293,-5.20098 3.11468,-8.56728 -0.49325,-7.97299 -6.31606,-14.64307 -14.15754,-16.217595 -3.51856,-0.706505 -3.12016,-1.946884 -3.11902,9.710825 10e-4,10.00815 0.007,10.11151 0.49809,9.32656 0.88206,-1.40845 1.54481,-1.77129 3.31224,-1.81339 1.34399,-0.032 1.73316,0.0625 2.25394,0.54747 0.3462,0.32239 0.71263,0.53476 0.81428,0.47194 0.10165,-0.0628 0.12659,0.50684 0.0554,1.26592 -0.0712,0.75908 -0.26108,1.46474 -0.42203,1.56813 -0.19562,0.12566 -0.13203,0.30543 0.19179,0.54222 0.33922,0.24805 0.44985,0.58823 0.36908,1.13492 l -0.11535,0.7807 -0.0396,-0.85989 -0.0396,-0.8599 h -3.175 c -3.53814,0 -3.45121,-0.0573 -2.86794,1.88954 0.64455,2.1513 3.14947,4.17633 5.18304,4.19007 l 0.8599,0.006 z m 1.27193,-5.22552 c 0,-1.76389 0.10423,-2.91041 0.26459,-2.91041 0.15782,0 0.26458,1.01423 0.26458,2.51354 0,1.38245 0.0893,2.50743 0.19844,2.49996 0.10914,-0.007 0.85328,-0.84434 1.65364,-1.85971 0.80037,-1.01538 1.78263,-2.16263 2.18282,-2.54946 l 0.7276,-0.70334 v 2.95992 c 0,2.19122 -0.0859,2.96008 -0.33073,2.96054 -0.24539,5.2e-4 -0.30865,-0.57981 -0.24514,-2.24896 0.0471,-1.23727 -0.0225,-2.24958 -0.1547,-2.24958 -0.24761,0 -0.60162,0.37547 -2.8073,2.97743 -0.7089,0.83627 -1.39351,1.52049 -1.52135,1.52049 -0.12785,0 -0.23245,-1.30969 -0.23245,-2.91042 z m -1.4552,-3.43958 c -0.0899,-0.14552 -0.0374,-0.26458 0.11667,-0.26458 0.15411,0 0.2802,0.11906 0.2802,0.26458 0,0.14552 -0.0525,0.26458 -0.11668,0.26458 -0.0642,0 -0.19026,-0.11906 -0.28019,-0.26458 z m -3.05225,-4.23333 c 0.11146,-0.21829 0.28138,-1.23032 0.3776,-2.24896 0.0962,-1.01865 0.24952,-2.43881 0.34066,-3.15592 l 0.16569,-1.30384 1.52025,3.02363 1.52026,3.02363 1.39071,-2.97978 c 0.76489,-1.63888 1.42831,-2.94218 1.47427,-2.89622 0.046,0.046 0.25407,1.55125 0.46248,3.34509 0.23869,2.05455 0.51086,3.35588 0.73546,3.51649 0.26498,0.18949 0.23208,0.21458 -0.12813,0.0977 -0.26656,-0.0865 -0.58383,-0.15725 -0.70503,-0.15725 -0.1212,0 -0.29692,-0.92274 -0.39049,-2.05052 -0.277,-3.33862 -0.40005,-3.37357 -1.73745,-0.49356 -0.64916,1.39792 -1.25449,2.54222 -1.34518,2.54288 -0.0907,7.9e-4 -0.68133,-1.12465 -1.31253,-2.50068 -0.6312,-1.37603 -1.19631,-2.45321 -1.25579,-2.39373 -0.0595,0.0595 -0.21357,1.14818 -0.34241,2.41932 -0.17109,1.68796 -0.15163,2.36224 0.0722,2.50055 0.16854,0.10417 0.002,0.17109 -0.36938,0.14871 -0.50838,-0.0306 -0.62561,-0.139 -0.47317,-0.43755 z m 0.0887,7.68239 c -0.0766,-0.29293 0.0587,-0.71426 0.31004,-0.96563 0.41821,-0.4182 0.44055,-0.41638 0.35911,0.0292 -0.11498,0.62917 0.49467,0.82863 0.654,0.21397 0.0931,-0.35912 0.13144,-0.32189 0.15452,0.15005 0.0258,0.5269 0.0944,0.57481 0.42756,0.29833 0.55298,-0.45893 0.49564,-1.68069 -0.10436,-2.22368 -1.25969,-1.14001 -3.52329,-0.56189 -4.48251,1.14481 -0.94299,1.67782 -0.82622,1.87262 1.12252,1.87262 1.55445,0 1.68375,-0.0431 1.55912,-0.51969 z m -17.07862,3.51946 c 0.1819,-0.0734 0.33073,-0.36166 0.33073,-0.64057 0,-0.39189 -0.18841,-0.50712 -0.8292,-0.50712 -2.45772,0 -5.19359,-1.99971 -5.788,-4.23059 -0.59548,-2.23485 0.23847,-4.90473 1.93657,-6.19993 1.04009,-0.79331 2.85286,-1.47573 3.92014,-1.47573 0.93061,0 1.04044,-0.69827 0.16517,-1.05009 -0.43365,-0.1743 -0.0564,-0.23928 1.38907,-0.23928 1.4455,0 1.82271,0.065 1.38906,0.23928 -1.04766,0.42111 -0.70764,0.96308 0.70951,1.13092 2.46252,0.29165 4.61983,1.92971 5.31484,4.0356 0.38693,1.17241 0.20677,3.43768 -0.36067,4.53499 -0.9616,1.85952 -3.32508,3.25483 -5.51326,3.25483 -0.78579,0 -0.97931,0.45434 -0.42823,1.00542 0.24694,0.24694 -0.003,0.31286 -1.12448,0.29661 -0.79309,-0.0115 -1.29315,-0.0809 -1.11125,-0.15434 z m 4.96094,-2.30532 c 1.59195,-0.8456 2.30587,-2.41346 2.19601,-4.8227 -0.071,-1.55704 -0.21622,-2.06763 -0.84691,-2.97771 -0.88644,-1.27914 -2.13233,-2.12161 -3.45492,-2.33624 l -0.93689,-0.15204 v 5.41448 c 0,2.97797 0.0736,5.48807 0.16352,5.57801 0.26347,0.26346 1.73571,-0.0964 2.87919,-0.7038 z m -4.49066,0.0323 c 0.0823,-0.3279 0.11433,-2.73892 0.0712,-5.35781 l -0.0784,-4.76162 -1.24024,0.0414 c -1.50467,0.0503 -2.53858,0.62237 -3.40206,1.88254 -0.55755,0.81369 -0.64937,1.2497 -0.64937,3.08374 0,1.97382 0.0645,2.22888 0.84882,3.35824 1.34768,1.94051 4.12819,3.03612 4.45011,1.75349 z M 129.7552,97.655343 c 2.00091,-0.04495 5.27513,-0.04495 7.27604,0 2.00092,0.04495 0.36381,0.08172 -3.63802,0.08172 -4.00182,0 -5.63893,-0.03678 -3.63802,-0.08172 z"
         style="fill:#ffffff;fill-opacity:1;stroke-width:0.264583" />
      <path
         id="path855"
         d="m 91.928278,126.02816 c -0.0195,-0.83283 0.07065,-1.39354 0.210193,-1.3073 0.134385,0.0831 0.244336,-0.20542 0.244336,-0.64106 0,-2.30123 1.501038,-7.33908 3.090904,-10.37382 4.110921,-7.84694 11.640189,-13.64366 19.891329,-15.314144 1.24449,-0.251954 2.08923,-0.526364 1.87721,-0.609802 -0.21202,-0.08344 1.55631,-0.161105 3.92961,-0.172593 2.5353,-0.01227 4.25362,0.07857 4.16606,0.220249 -0.082,0.132625 0.35749,0.321584 0.97658,0.419907 1.45699,0.231403 4.99598,1.946363 6.67259,3.233473 2.96376,2.27525 5.70844,6.44711 6.48943,9.86382 0.18295,0.80036 0.43686,1.80039 0.56425,2.22229 0.80427,2.66363 -0.44228,7.27726 -2.69235,9.96473 -1.17212,1.39997 -3.66302,3.06069 -4.98825,3.32573 -0.45652,0.0913 -0.89412,0.26969 -0.97244,0.39642 -0.0783,0.12672 -1.13616,0.23041 -2.35074,0.23041 -1.78301,0 -2.42333,-0.11466 -3.32456,-0.59531 -1.45392,-0.77543 -2.58416,-1.92462 -3.1877,-3.24115 l -0.48518,-1.05833 -0.0891,2.51354 c -0.049,1.38245 -0.1138,-4.06466 -0.144,-12.10469 l -0.0549,-14.618227 -1.12448,8.46e-4 c -1.52366,0.0011 -5.36521,0.691403 -7.54306,1.355353 -4.72792,1.441368 -10.26122,5.068168 -13.03416,8.543218 -0.634688,0.79539 -1.279965,1.37463 -1.433951,1.2872 -0.153987,-0.0874 -0.200047,-0.0699 -0.102356,0.039 0.09769,0.10889 -0.297317,0.93165 -0.877796,1.82835 -2.757996,4.26045 -4.723783,10.40356 -4.723783,14.7619 0,1.06268 -0.08314,1.28826 -0.474776,1.28826 -0.39509,0 -0.480507,-0.24476 -0.50892,-1.45831 z m 39.083692,0.49905 c 2.22541,-0.46242 5.09679,-2.37864 6.39776,-4.26953 3.1504,-4.57894 2.3845,-11.74913 -1.82153,-17.05294 -0.77485,-0.97708 -1.87982,-2.15503 -2.4555,-2.61766 -0.57568,-0.46262 -0.97229,-0.96151 -0.88137,-1.10863 0.0944,-0.15274 0.0335,-0.18602 -0.14195,-0.0776 -0.169,0.10445 -0.63388,-0.0421 -1.03306,-0.32572 -1.66525,-1.183041 -6.38387,-2.692837 -8.41602,-2.692837 h -0.64416 l 0.008,10.120317 c 0.006,7.54661 0.0826,9.98574 0.30103,9.59114 0.16113,-0.29104 0.65097,-0.86559 1.08853,-1.27679 0.69309,-0.65133 1.00679,-0.74884 2.4356,-0.75708 1.42916,-0.008 1.73042,0.0809 2.343,0.6935 0.55049,0.55049 0.70296,0.95861 0.70296,1.88156 0,0.64823 -0.11906,1.1786 -0.26458,1.1786 -0.14552,0 -0.26458,0.1786 -0.26458,0.39688 0,0.32872 -0.49977,0.39687 -2.91042,0.39687 h -2.91042 l 0.004,0.72761 c 0.007,1.22117 1.35373,3.54591 2.51381,4.34079 1.73351,1.18778 3.27098,1.40786 5.94842,0.85151 z m -0.79375,-6.71366 c 0,-1.76389 0.10423,-2.91041 0.26459,-2.91041 0.15782,0 0.26458,1.01423 0.26458,2.51354 0,1.38245 0.0893,2.50785 0.19844,2.50089 0.10914,-0.007 0.97234,-0.96752 1.91823,-2.13459 2.75344,-3.39729 2.59776,-3.39793 2.60668,0.0107 0.005,2.09368 -0.0823,2.93042 -0.30732,2.93085 -0.22659,5.3e-4 -0.29115,-0.66783 -0.23006,-2.38125 0.0467,-1.31002 -0.0128,-2.37628 -0.1323,-2.36947 -0.11946,0.007 -1.09964,1.07837 -2.17816,2.38125 -1.07853,1.30287 -2.06079,2.36886 -2.18281,2.36886 -0.12203,10e-6 -0.22187,-1.30968 -0.22187,-2.91041 z m -4.06306,-10.2526 c 0.18343,-1.56435 0.34888,-3.14193 0.36766,-3.50573 0.0242,-0.46853 0.44283,0.17149 1.43525,2.19425 0.77059,1.57064 1.47368,2.92831 1.56242,3.01704 0.0887,0.0887 0.81172,-1.19633 1.60663,-2.8557 0.79491,-1.65938 1.45235,-2.77892 1.46099,-2.48788 0.0259,0.87389 0.52908,5.24733 0.67728,5.88698 0.0931,0.40186 0.0163,0.59531 -0.23648,0.59531 -0.27953,0 -0.43164,-0.6201 -0.60035,-2.4474 -0.13561,-1.46882 -0.33131,-2.3945 -0.48944,-2.3151 -0.14491,0.0728 -0.76255,1.19062 -1.37254,2.48414 l -1.10907,2.35186 -1.25877,-2.53401 c -0.69232,-1.3937 -1.33903,-2.48439 -1.43714,-2.42375 -0.0981,0.0606 -0.26242,1.1844 -0.36512,2.49725 -0.1027,1.31286 -0.27405,2.38701 -0.38078,2.38701 -0.10672,0 -0.044,-1.27992 0.13946,-2.84427 z m -0.3701,10.12031 c -0.0738,-0.38612 -0.003,-0.66146 0.16899,-0.66146 0.16248,0 0.29542,0.13295 0.29542,0.29544 0,0.16518 0.23332,0.23443 0.52917,0.15707 0.29104,-0.0761 0.52917,-0.0342 0.52917,0.0931 0,0.44771 0.74329,-0.0595 0.8858,-0.60447 0.16703,-0.63872 -0.4825,-2.0476 -0.95874,-2.07958 -0.17817,-0.012 -0.65385,-0.0759 -1.05707,-0.14208 -1.5259,-0.25045 -3.19252,1.07283 -3.54012,2.8108 l -0.15852,0.79262 h 1.71618 c 1.68791,0 1.71409,-0.0109 1.58972,-0.66146 z m -16.80583,3.21461 c 0.10913,-0.57089 0.01,-0.63473 -1.20922,-0.77914 -2.30384,-0.27285 -4.39062,-1.70963 -5.07441,-3.4938 -0.16732,-0.43656 -0.30586,-1.48648 -0.30788,-2.33314 -0.007,-3.02124 1.89247,-5.21555 5.03169,-5.81213 1.71098,-0.32516 2.11361,-0.80638 1.03683,-1.2392 -0.4291,-0.17247 -0.0413,-0.2339 1.38907,-0.22002 1.0914,0.0106 1.72655,0.0695 1.41143,0.13099 -0.64748,0.12627 -1.04527,0.84506 -0.54708,0.98853 0.17945,0.0517 1.01363,0.23492 1.85373,0.4072 1.7568,0.36027 3.46113,1.5242 4.27672,2.92068 0.56718,0.97114 0.74048,3.40319 0.34356,4.82151 -0.50809,1.81559 -2.88946,3.54826 -5.26306,3.82938 -1.21928,0.14441 -1.31836,0.20825 -1.20922,0.77914 0.10756,0.56267 0.0251,0.62185 -0.86608,0.62185 -0.89122,0 -0.97364,-0.0592 -0.86608,-0.62185 z m 4.35188,-1.57409 c 0.5183,-0.21656 1.28252,-0.83973 1.69828,-1.38481 0.62467,-0.81899 0.77386,-1.30863 0.85927,-2.82009 0.18102,-3.20359 -1.00291,-5.13435 -3.7104,-6.05093 -1.04549,-0.35393 -1.44986,-0.39509 -1.59772,-0.16261 -0.25897,0.40718 -0.26613,10.61367 -0.008,10.87375 0.25747,0.25905 1.56513,0.0432 2.75819,-0.45531 z m -4.07575,-5.14625 -0.0715,-5.4901 -0.92604,0.0733 c -1.62297,0.12852 -3.21956,1.11935 -3.89255,2.41568 -0.77068,1.48452 -0.81448,3.90408 -0.0992,5.4792 0.73603,1.6208 2.66705,2.95722 4.32783,2.99522 l 0.73298,0.0168 z m -17.350139,4.82865 c 0.0054,-0.43656 0.06469,-0.58313 0.131774,-0.3257 0.06708,0.25744 0.06267,0.61462 -0.0098,0.79375 -0.07248,0.17913 -0.127363,-0.0315 -0.121971,-0.46805 z m 0.02048,-2.51354 c 0,-0.65485 0.0516,-0.92274 0.114663,-0.59532 0.06306,0.32743 0.06306,0.86321 0,1.19063 -0.06306,0.32742 -0.114663,0.0595 -0.114663,-0.59531 z m 0.04721,-11.1125 c 0,-5.16599 0.03544,-7.27935 0.07876,-4.69636 0.04332,2.583 0.04332,6.80972 0,9.39271 -0.04332,2.58299 -0.07876,0.46964 -0.07876,-4.69635 z m 0.0957,-9.705745 c 0.190996,-0.07643 0.419199,-0.06703 0.507118,0.02089 0.08792,0.08792 -0.06835,0.150453 -0.347266,0.138965 -0.308224,-0.0127 -0.370919,-0.07539 -0.159852,-0.159853 z m 6.465755,-0.01742 c 3.165084,-0.04221 8.344304,-0.04221 11.509374,0 3.16508,0.04221 0.57547,0.07674 -5.75468,0.07674 -6.330163,0 -8.919772,-0.03453 -5.754694,-0.07674 z m 31.353124,4.23e-4 c 1.92816,-0.04521 5.08331,-0.04521 7.01146,0 1.92815,0.04521 0.35058,0.08219 -3.50573,0.08219 -3.8563,0 -5.43388,-0.03699 -3.50573,-0.08219 z"
         style="fill:#ffffff;fill-opacity:1;stroke-width:0.264583" />
      <path
         id="path853"
         d="m 92.333198,127.30573 c 0.190996,-0.0764 0.419199,-0.067 0.507118,0.0209 0.08792,0.0879 -0.06835,0.15045 -0.347266,0.13896 -0.308224,-0.0127 -0.370919,-0.0754 -0.159852,-0.15985 z m 29.475252,-14.3052 -0.0569,-14.618227 -1.38907,-0.03964 c -1.05181,-0.03002 -1.19635,-0.07617 -0.59531,-0.190107 0.61032,-0.115693 0.39632,-0.187753 -0.92604,-0.311825 -1.20872,-0.113409 -0.51903,-0.170115 2.32086,-0.190819 2.22236,-0.0162 3.97841,0.07125 3.90234,0.194336 -0.0761,0.123088 -0.37632,0.161556 -0.66721,0.08549 -0.29562,-0.07731 -0.52891,-0.008 -0.52891,0.157131 0,0.162493 -0.41811,0.295442 -0.92914,0.295442 h -0.92915 l 0.0692,10.252609 c 0.0479,7.08917 0.15643,10.23715 0.3518,10.20252 0.16708,-0.0296 0.23674,0.26199 0.17047,0.71356 -0.1114,0.75903 -0.10271,0.76424 1.43724,0.85995 l 1.54933,0.0963 -1.52136,0.05 c -1.15369,0.0379 -1.52135,0.14593 -1.52135,0.4469 0,0.21828 -0.11529,0.39687 -0.25619,0.39687 -0.1459,0 -0.29226,1.3383 -0.33998,3.10886 -0.0461,1.70987 -0.1094,-3.46935 -0.14069,-11.50938 z m 0.73686,7.4901 c 0,-0.0642 -0.11907,-0.19027 -0.26459,-0.2802 -0.14552,-0.0899 -0.26458,-0.0374 -0.26458,0.11667 0,0.15411 0.11906,0.2802 0.26458,0.2802 0.14552,0 0.26459,-0.0525 0.26459,-0.11667 z m 4.202,6.7974 c -0.0172,-0.10914 -0.0124,-0.30234 0.0108,-0.42933 0.0232,-0.127 -0.14885,-0.1576 -0.3823,-0.068 -0.54609,0.20955 -1.64566,-0.36894 -2.59011,-1.36267 -0.61382,-0.64584 -0.67168,-0.81053 -0.33073,-0.94136 0.22728,-0.0872 0.41514,-0.073 0.41746,0.0316 0.002,0.10457 0.32975,0.55743 0.72761,1.00635 0.71973,0.8121 1.86698,1.2091 3.67467,1.2716 0.45905,0.0159 0.78864,0.10327 0.73243,0.19422 -0.0562,0.0909 0.19111,0.16536 0.54961,0.16536 0.35849,0 0.58742,-0.10418 0.50873,-0.23151 -0.21699,-0.35108 0.26589,-0.27677 0.64465,0.0992 0.26714,0.26518 0.29824,0.23896 0.1569,-0.13229 -0.13779,-0.36195 -0.0366,-0.46302 0.4638,-0.46302 0.7136,0 2.73469,-0.89562 3.45769,-1.53222 0.33074,-0.29122 0.55212,-0.33035 0.7499,-0.13257 0.35654,0.35654 -0.71079,1.1618 -1.26037,0.95091 -0.22885,-0.0878 -0.34703,-0.002 -0.30035,0.2184 0.0423,0.19975 -0.10163,0.36318 -0.31991,0.36318 -0.21828,0 -0.47263,0.10418 -0.56522,0.23151 -0.0926,0.12734 -0.47732,0.23152 -0.85495,0.23152 -0.37763,0 -0.82247,0.16371 -0.98853,0.3638 -0.32386,0.39022 -4.44241,0.54151 -4.5018,0.16536 z m -2.34992,-1.75354 c 0,-0.0549 -0.20836,-0.2633 -0.46302,-0.46302 -0.41965,-0.32911 -0.429,-0.31975 -0.0999,0.0999 0.34565,0.44072 0.56292,0.58088 0.56292,0.36312 z m -31.894688,-1.02458 c 0.02981,-1.34607 0.189431,-2.69963 0.354717,-3.00792 0.165286,-0.30829 0.235796,-0.62525 0.156689,-0.70436 -0.240202,-0.2402 0.762377,-3.08824 1.029105,-2.92339 0.144351,0.0892 0.173626,-0.082 0.0699,-0.4088 -0.105884,-0.33361 -0.06361,-0.5623 0.103946,-0.5623 0.417016,0 0.354598,0.45313 -0.402771,2.924 -0.714251,2.3302 -0.780433,2.75348 -0.856265,5.47652 -0.02533,0.9095 -0.150331,1.65364 -0.277786,1.65364 -0.127454,0 -0.207346,-1.10133 -0.177537,-2.44739 z m 43.588208,-0.16639 c -0.159,-0.0983 0.10371,-0.57843 0.63172,-1.15459 0.49716,-0.5425 0.90755,-0.83928 0.91197,-0.65951 0.004,0.17976 0.12993,0.11754 0.27891,-0.13828 0.14897,-0.25581 0.21011,-0.56339 0.13588,-0.6835 -0.0742,-0.12012 0.032,-0.21839 0.23597,-0.21839 0.29182,0 0.30941,0.11758 0.0825,0.55121 -0.50931,0.97319 -1.99584,2.47678 -2.27692,2.30306 z m 1.00648,-0.95809 c 0.34178,-0.3638 0.56188,-0.66146 0.48912,-0.66146 -0.0728,0 -0.41193,0.29766 -0.7537,0.66146 -0.34178,0.3638 -0.56188,0.66146 -0.48912,0.66146 0.0728,0 0.41193,-0.29766 0.7537,-0.66146 z m -14.4348,0.27881 c -0.32897,-0.50207 -0.35717,-0.75428 -0.12576,-1.12448 0.25904,-0.41441 0.27551,-0.3945 0.12506,0.1512 -0.12967,0.47029 -0.0882,0.57589 0.16462,0.41961 0.23489,-0.14517 0.29016,-0.0844 0.18131,0.19921 -0.0861,0.22442 -0.023,0.54161 0.14025,0.70486 0.16325,0.16326 0.21622,0.29683 0.11771,0.29683 -0.0985,0 -0.36994,-0.29125 -0.60319,-0.64723 z m -13.87562,-0.23833 c 0,-0.0505 0.215,-0.3397 0.47778,-0.64269 0.49284,-0.56825 0.71772,-0.52271 1.34056,0.27148 0.33316,0.42482 0.27313,0.46302 -0.72761,0.46302 -0.5999,0 -1.09073,-0.0413 -1.09073,-0.0918 z m 1.46235,-0.4258 c -0.086,-0.13917 -0.33116,-0.18596 -0.54478,-0.10399 -0.54692,0.20988 -0.48247,0.35702 0.15638,0.35702 0.29963,0 0.47441,-0.11387 0.3884,-0.25303 z m 20.05425,-3.17111 c 0.0252,-1.60923 0.13531,-2.92586 0.24479,-2.92586 0.10946,0 0.21689,1.13109 0.23872,2.51354 0.0218,1.38245 0.0516,2.65245 0.0661,2.82222 0.0146,0.16977 -0.11345,0.35532 -0.28447,0.41232 -0.22746,0.0758 -0.29864,-0.68172 -0.26518,-2.82222 z m 4.70785,0.57987 c 0.0348,-2.62509 0.16764,-2.44663 0.29543,0.39687 0.0474,1.05503 -0.007,1.91823 -0.11996,1.91823 -0.11339,0 -0.19235,-1.0418 -0.17547,-2.3151 z m -26.53844,1.77117 c -0.39097,-0.10731 -0.77793,-0.12804 -0.85989,-0.0461 -0.082,0.082 -0.14903,0.0304 -0.14903,-0.11451 0,-0.14495 -0.26789,-0.25409 -0.59532,-0.24254 -0.32742,0.0116 -0.56931,-0.11653 -0.53753,-0.28462 0.0318,-0.1681 -0.1303,-0.37781 -0.36019,-0.46602 -0.28886,-0.11085 -0.37316,-0.0436 -0.27292,0.21759 0.11598,0.30224 -0.0107,0.28959 -0.63241,-0.0632 -0.4276,-0.24262 -0.72594,-0.57831 -0.66298,-0.74599 0.063,-0.16767 0.0402,-0.3791 -0.0505,-0.46984 -0.0907,-0.0907 -0.20003,-0.4298 -0.24288,-0.75347 -0.075,-0.5667 -0.0636,-0.56991 0.30703,-0.0865 0.21171,0.2761 0.33664,0.58012 0.27762,0.67561 -0.15247,0.24671 2.73374,1.7737 3.76227,1.99048 l 0.8599,0.18124 v -5.70956 c 0,-6.44561 0.13488,-6.10708 -2.11667,-5.31269 -1.31404,0.46363 -1.32291,0.46479 -1.32291,0.17417 0,-0.29958 1.84425,-0.83563 2.87497,-0.83563 1.21415,0 0.95618,-0.80759 -0.36143,-1.13146 -0.49035,-0.12053 -0.48665,-0.13232 0.0505,-0.16076 0.31883,-0.0169 0.66114,0.10108 0.76068,0.26214 0.12653,0.20473 0.25813,0.18483 0.43745,-0.0662 0.19535,-0.27343 0.22097,-0.24863 0.10752,0.10405 -0.18123,0.56336 0.24494,0.62474 0.45929,0.0661 0.0895,-0.23324 0.45572,-0.38422 0.8882,-0.36618 0.55047,0.023 0.60257,0.0628 0.20675,0.15797 -0.29105,0.07 -0.62723,0.21974 -0.74708,0.33274 -0.11985,0.113 -0.20585,2.44631 -0.1911,5.18513 0.0147,2.73882 -0.0323,4.92055 -0.10456,4.8483 -0.0722,-0.0722 -0.14971,-2.17899 -0.17213,-4.68164 -0.0224,-2.50265 -0.11543,-4.55028 -0.20669,-4.55028 -0.0913,0 -0.19819,2.55985 -0.23759,5.68854 -0.043,3.41395 0.0275,5.68855 0.17639,5.68855 0.13642,0 0.30809,-0.14883 0.38149,-0.33073 0.10452,-0.25905 0.13798,-0.25725 0.15434,0.008 0.0115,0.18648 -0.18748,0.41591 -0.44214,0.50987 -0.25466,0.094 -0.52255,0.24987 -0.59531,0.34646 -0.0728,0.0966 -0.45218,0.0878 -0.84316,-0.0195 z m -3.39017,-1.57274 c 0,-0.14552 -0.12609,-0.26458 -0.2802,-0.26458 -0.15411,0 -0.20661,0.11906 -0.11668,0.26458 0.0899,0.14552 0.21603,0.26459 0.2802,0.26459 0.0642,0 0.11668,-0.11907 0.11668,-0.26459 z m 6.21771,1.31595 c 0.58208,-0.11747 1.38575,-0.3396 1.78593,-0.49363 0.40019,-0.15403 0.72761,-0.22347 0.72761,-0.15431 0,0.25613 1.09525,-0.98043 1.59643,-1.80241 0.40171,-0.65882 0.51848,-1.33194 0.51924,-2.99309 8e-4,-1.96689 -0.0649,-2.23412 -0.80076,-3.2499 -0.89917,-1.24127 -1.99729,-2.00235 -3.56387,-2.47005 -1.02945,-0.30733 -1.03745,-0.31866 -0.29329,-0.41482 0.42077,-0.0544 0.85394,0.045 0.9626,0.22081 0.10866,0.17581 0.329,0.23843 0.48964,0.13915 0.16064,-0.0993 0.50137,-0.0586 0.75718,0.0904 0.31935,0.18597 0.35028,0.27338 0.0987,0.27891 -0.20153,0.004 -0.0229,0.27183 0.39687,0.59423 0.41981,0.32241 0.83613,0.68977 0.92516,0.81635 0.089,0.12659 0.26682,0.24976 0.39508,0.27371 0.12826,0.0239 0.19903,0.19237 0.15726,0.37427 -0.0957,0.41683 0.38116,0.43432 0.63519,0.0233 0.10692,-0.173 -0.0598,-0.50972 -0.38126,-0.77002 -0.3142,-0.2544 -0.57127,-0.54736 -0.57127,-0.65099 0,-0.35672 0.8669,0.53193 1.50501,1.54276 0.35161,0.55698 0.60628,1.21357 0.56593,1.45909 -0.0403,0.24552 0.0218,0.59813 0.13808,0.78358 0.25769,0.41093 -0.039,1.91177 -0.37796,1.91177 -0.13395,0 -0.24356,-0.24515 -0.24356,-0.54478 0,-0.33096 0.11498,-0.47372 0.29293,-0.36374 0.20344,0.12573 0.22762,-0.011 0.0791,-0.44741 -0.11757,-0.34564 -0.21963,-0.88496 -0.22678,-1.19849 -0.007,-0.31353 -0.10094,-0.5157 -0.20841,-0.44928 -0.10748,0.0664 -0.12912,-0.052 -0.0481,-0.26308 0.081,-0.21112 0.0202,-0.46239 -0.13506,-0.55836 -0.19482,-0.12041 -0.24551,0.49714 -0.1635,1.99207 0.0795,1.44915 -0.004,2.52752 -0.25114,3.2566 -0.32428,0.95535 -0.32265,1.02656 0.0132,0.57642 0.21074,-0.28247 0.38316,-0.73598 0.38316,-1.0078 0,-0.27181 0.11907,-0.42063 0.26459,-0.33069 0.14552,0.0899 0.26458,0.0176 0.26458,-0.16077 0,-0.17837 0.0611,-0.26321 0.13577,-0.18853 0.24461,0.24461 -0.60364,1.92266 -1.30329,2.57823 -0.37651,0.35279 -0.68456,0.56115 -0.68456,0.46302 0,-0.0981 -0.22557,0.0472 -0.50126,0.32285 -0.49997,0.49997 -2.70705,1.11222 -3.81125,1.05725 -0.32026,-0.0159 -0.10604,-0.1251 0.47605,-0.24256 z m 20.5052,-0.88668 c 0,-0.0549 0.20836,-0.2633 0.46302,-0.46302 0.41965,-0.3291 0.42901,-0.31975 0.0999,0.0999 -0.34564,0.44073 -0.56292,0.58089 -0.56292,0.36312 z m 6.76163,-0.14081 c -0.21566,-0.34895 0.12834,-1.10676 0.42045,-0.92623 0.13959,0.0863 0.18779,-0.11624 0.11058,-0.46454 -0.0753,-0.33961 0.0252,-0.97467 0.2234,-1.41123 l 0.3603,-0.79375 -0.0743,1.19063 c -0.0711,1.13902 -0.50869,2.64583 -0.76846,2.64583 -0.0678,0 -0.19017,-0.10832 -0.272,-0.24071 z m -28.604,-0.31151 c -0.0978,-0.1582 -0.0453,-0.42014 0.11668,-0.58208 0.2162,-0.21621 0.29444,-0.13978 0.29444,0.28763 0,0.63884 -0.13744,0.73728 -0.41112,0.29445 z m 15.96644,-0.15586 c 0.23129,-0.0928 0.25757,-0.23859 0.0813,-0.451 -0.16235,-0.19562 -0.16804,-0.46006 -0.0151,-0.70188 0.20352,-0.32179 0.24609,-0.30632 0.24945,0.0906 0.002,0.26325 0.12175,0.40589 0.2656,0.31698 0.15536,-0.096 0.19082,0.0227 0.0873,0.29238 -0.1182,0.30803 -0.0747,0.3925 0.13532,0.26271 0.17026,-0.10523 0.30955,-0.0652 0.30955,0.0889 0,0.15411 -0.32742,0.2708 -0.7276,0.25931 -0.40019,-0.0115 -0.57381,-0.0826 -0.38583,-0.15802 z m 1.37802,-0.14197 c 0,-0.2761 0.30665,-0.25722 0.79041,0.0486 0.30929,0.19555 0.26681,0.23927 -0.19844,0.20423 -0.32558,-0.0245 -0.59197,-0.13832 -0.59197,-0.25287 z M 103.49,119.93945 c -0.18408,-0.2218 -0.28344,-0.45451 -0.22082,-0.51713 0.0626,-0.0626 0.2592,0.11884 0.43682,0.40327 0.38413,0.61508 0.25602,0.68261 -0.216,0.11386 z m 24.53833,-0.0227 c -0.0936,-0.0936 0.007,-0.51234 0.22287,-0.93045 0.21621,-0.41811 0.2971,-0.7602 0.17974,-0.7602 -0.11735,0 -0.3523,-0.36807 -0.5221,-0.81793 -0.16981,-0.44986 -0.41419,-0.75276 -0.54308,-0.6731 -0.12889,0.0797 -0.23434,-0.0285 -0.23434,-0.2404 0,-0.21188 0.17859,-0.38524 0.39687,-0.38524 0.21828,0 0.31962,0.0773 0.22519,0.17169 -0.0944,0.0944 0.11913,0.42185 0.47457,0.7276 0.50164,0.43151 0.63207,0.77674 0.58284,1.54265 -0.0635,0.9882 -0.46291,1.68504 -0.78256,1.36538 z m 5.36489,-0.73223 c 0,-0.0549 0.20836,-0.2633 0.46302,-0.46302 0.41965,-0.32911 0.42901,-0.31975 0.0999,0.0999 -0.34564,0.44072 -0.56292,0.58088 -0.56292,0.36312 z m -30.1625,-0.40079 c 0,-0.17836 -0.11557,-0.25287 -0.25682,-0.16557 -0.39426,0.24367 -0.60922,-1.0186 -0.49063,-2.88104 0.0778,-1.22241 0.28249,-1.93761 0.74943,-2.61907 0.35329,-0.51559 0.71259,-0.89403 0.79845,-0.84096 0.0859,0.0531 0.37428,-0.19405 0.64094,-0.54914 0.50698,-0.67509 0.93988,-0.8434 0.93988,-0.36542 0,0.15411 -0.11906,0.20661 -0.26458,0.11668 -0.14552,-0.0899 -0.26458,0.0259 -0.26458,0.25727 0,0.23144 -0.17791,0.48906 -0.39536,0.57251 -0.21744,0.0834 -0.33032,0.25693 -0.25084,0.38554 0.0795,0.1286 -0.0343,0.16522 -0.25279,0.0814 -0.31066,-0.11922 -0.37099,0.0113 -0.27664,0.59834 0.11743,0.7307 0.10903,0.73663 -0.31349,0.22163 l -0.43416,-0.52916 0.20867,0.52916 c 0.11477,0.29105 0.24443,1.06495 0.28813,1.7198 0.0437,0.65484 0.14901,1.66687 0.234,2.24895 0.14072,0.96374 0.12134,1.01104 -0.21689,0.52917 -0.24604,-0.35054 -0.34694,-1.08714 -0.29891,-2.18212 0.0399,-0.90912 -0.0166,-1.708 -0.12547,-1.7753 -0.10889,-0.0673 -0.21368,0.29544 -0.23288,0.80607 -0.0192,0.51064 -0.0963,1.02779 -0.17137,1.14924 -0.075,0.12143 0.0362,0.79463 0.24732,1.49598 0.21107,0.70135 0.32861,1.33035 0.26118,1.39778 -0.0674,0.0674 -0.12259,-0.0233 -0.12259,-0.20171 z m 19.05842,-0.442 c -0.012,-0.40003 1.5375,-1.83292 1.75109,-1.61934 0.0976,0.0976 -0.0393,0.41712 -0.3043,0.70994 -0.265,0.29283 -0.54023,0.474 -0.61162,0.40261 -0.0714,-0.0714 -0.28662,0.0767 -0.47828,0.32911 -0.19166,0.2524 -0.35226,0.33235 -0.35689,0.17768 z m 1.34825,-1.10783 c 0.32911,-0.41965 0.31975,-0.42901 -0.0999,-0.0999 -0.44072,0.34564 -0.58088,0.56292 -0.36312,0.56292 0.0549,0 0.2633,-0.20836 0.46302,-0.46302 z m 11.05872,0.3655 c 0.71621,-0.7774 0.85752,-0.8535 0.66808,-0.35981 -0.071,0.18503 -0.39469,0.49833 -0.7193,0.69623 -0.56289,0.34317 -0.56052,0.3276 0.0512,-0.33642 z m 5.08495,-0.40267 c -0.23379,-0.14814 -0.29313,-0.43518 -0.1701,-0.82283 0.10393,-0.32743 0.0869,-0.53214 -0.0378,-0.4549 -0.12473,0.0772 -0.2115,-0.4546 -0.19281,-1.18186 0.0187,-0.72726 -0.0633,-1.63874 -0.18215,-2.02553 -0.11886,-0.38678 -0.36841,-1.23902 -0.55456,-1.89386 -0.18614,-0.65484 -0.48171,-1.47333 -0.65681,-1.81886 -0.1751,-0.34553 -0.24929,-0.82178 -0.16486,-1.05833 0.0844,-0.23656 0.0603,-0.34591 -0.0537,-0.24301 -0.26853,0.24248 -1.53281,-1.61376 -1.56908,-2.30376 -0.0153,-0.29104 -0.16983,-0.52917 -0.34341,-0.52917 -0.48089,0 -1.44483,-1.13428 -1.12954,-1.32914 0.46376,-0.28662 2.90801,2.93262 2.69448,3.54879 -0.0734,0.21169 -0.009,0.29421 0.15248,0.19459 0.28909,-0.17866 0.73336,0.77861 0.62498,1.34664 -0.0337,0.17672 0.19208,0.57468 0.50176,0.88436 0.33551,0.33551 0.50972,0.76703 0.43108,1.06777 -0.0726,0.27758 -0.0102,0.5047 0.13869,0.5047 0.14887,0 0.20836,0.23829 0.13219,0.52953 -0.0762,0.29125 -0.0305,0.46281 0.10144,0.38126 0.13195,-0.0815 0.2399,0.39454 0.2399,1.05797 0,0.66343 0.11907,1.20624 0.26459,1.20624 0.14552,0 0.25621,0.26789 0.24598,0.59532 -0.0178,0.56803 -0.029,0.57106 -0.24598,0.0661 -0.18537,-0.43138 -0.23083,-0.44649 -0.24599,-0.0818 -0.0102,0.24607 0.0887,0.51371 0.21981,0.59475 0.166,0.10259 0.33343,2.04416 0.17218,1.9965 -0.008,-0.002 -0.17528,-0.10642 -0.37275,-0.23155 z m -45.546169,-0.66019 c 0,-0.3578 0.746044,-1.44497 0.891653,-1.29936 0.09795,0.0979 0.145757,-0.11221 0.106239,-0.46702 -0.04819,-0.43264 0.04777,-0.61977 0.291338,-0.56815 0.233959,0.0496 0.306329,-0.0712 0.203389,-0.33947 -0.185552,-0.48354 1.104607,-2.6092 1.655168,-2.72704 0.277105,-0.0593 0.247796,0.1063 -0.117058,0.66146 -0.267695,0.40732 -0.93821,1.66332 -1.490033,2.7911 -0.551822,1.12779 -1.124224,2.05052 -1.272005,2.05052 -0.14778,0 -0.268691,-0.0459 -0.268691,-0.10204 z m 30.741929,-0.12588 c -0.23007,-0.1459 -0.0744,-0.22755 0.46302,-0.24283 0.4453,-0.0126 0.80963,0.0881 0.80963,0.22386 0,0.30475 -0.80316,0.31672 -1.27265,0.019 z m 1.08013,-5.06374 c 0,-0.65485 0.0516,-0.92274 0.11467,-0.59532 0.0631,0.32743 0.0631,0.86321 0,1.19063 -0.0631,0.32742 -0.11467,0.0595 -0.11467,-0.59531 z m 6.36573,-2.05052 c -0.14262,-1.70987 -0.1712,-3.21195 -0.0635,-3.33795 0.18251,-0.21355 0.63306,3.91501 0.58805,5.38847 -0.0111,0.3638 0.11446,0.74893 0.27905,0.85584 0.19538,0.12691 0.15285,0.19579 -0.12251,0.19844 -0.34773,0.003 -0.46729,-0.5417 -0.68107,-3.1048 z m -3.24324,2.47095 c -0.2118,-0.25521 -0.22205,-0.42757 -0.0324,-0.54479 0.15259,-0.0943 0.27743,-0.0383 0.27743,0.12436 0,0.16269 0.1177,0.22307 0.26156,0.13416 0.14998,-0.0927 0.19433,0.0135 0.10398,0.24897 -0.19284,0.50254 -0.22293,0.50438 -0.61057,0.0373 z m -14.7805,-0.31483 c -0.18764,-0.2036 -0.22443,-0.37019 -0.0818,-0.37019 0.27475,0 0.6725,0.5033 0.51556,0.65238 -0.051,0.0484 -0.24616,-0.0786 -0.4338,-0.28219 z m 13.89297,-1.28621 c -0.33283,-0.69796 -0.36025,-0.96 -0.11515,-1.10075 0.17692,-0.10161 0.23805,-0.0919 0.13583,0.0215 -0.10221,0.11341 -0.0129,0.37913 0.19844,0.59048 0.32569,0.32569 0.5569,1.40481 0.30099,1.40481 -0.0458,0 -0.27986,-0.41221 -0.52011,-0.91602 z m -30.681933,0.47566 c 0.182807,-0.0737 0.259973,-0.25115 0.171478,-0.39434 -0.182439,-0.29519 -0.174027,-0.30539 2.884535,-3.49612 1.276,-1.33114 2.37475,-2.26889 2.53928,-2.1672 0.15952,0.0986 0.29004,0.0447 0.29004,-0.11984 0,-0.39889 0.70043,-1.08275 1.0177,-0.99363 0.13876,0.039 0.28215,-0.0482 0.31865,-0.19372 0.11237,-0.44813 0.86963,-0.87516 1.27565,-0.71935 0.24003,0.0921 0.31621,0.0362 0.20212,-0.14845 -0.14823,-0.23984 0.84714,-1.05983 1.08848,-0.8967 0.27532,0.1861 0.84698,-0.0199 0.79375,-0.28602 -0.0404,-0.202 0.17154,-0.30514 0.54454,-0.26498 0.35503,0.0382 0.54185,-0.0456 0.44625,-0.2003 -0.0904,-0.14633 0.0515,-0.3375 0.31536,-0.42481 0.26388,-0.0873 0.83698,-0.31391 1.27354,-0.503559 2.09708,-0.910989 4.41035,-1.502523 6.16773,-1.577173 1.06392,-0.04519 1.87404,-0.02181 1.80027,0.05196 -0.17387,0.173871 -4.87548,1.155415 -5.6529,1.180142 -0.32742,0.01041 -0.59531,0.111968 -0.59531,0.225675 0,0.113707 -0.26789,0.148027 -0.59531,0.07627 -0.47828,-0.104822 -0.51729,-0.07474 -0.19844,0.153011 0.31504,0.225034 0.21956,0.284324 -0.46302,0.287534 -0.47294,0.002 -0.8599,0.11938 -0.8599,0.26034 0,0.14095 -0.19812,0.18025 -0.44027,0.0873 -0.27345,-0.10493 -0.37506,-0.0634 -0.26816,0.10955 0.1595,0.25808 -2.05385,1.39893 -2.71405,1.39893 -0.15493,0 -0.28168,0.0993 -0.28168,0.2206 0,0.12134 -0.6302,0.65464 -1.40044,1.18512 -0.77023,0.53049 -1.7364,1.3152 -2.14704,1.74381 -0.47043,0.49103 -0.90665,0.72215 -1.17925,0.62481 -0.23796,-0.085 -0.34412,-0.0569 -0.23592,0.0623 0.22547,0.24852 -2.458185,3.20426 -2.808875,3.09366 -0.126993,-0.04 -0.165359,0.098 -0.08526,0.30671 0.148036,0.38577 -0.836361,1.51145 -1.288397,1.4733 -0.136142,-0.0115 -0.09796,-0.0812 0.08485,-0.15489 z m 0.988666,-0.87952 c 0.09269,-0.14999 -0.01351,-0.19434 -0.248969,-0.10399 -0.458368,0.17589 -0.542233,0.36554 -0.161648,0.36554 0.136932,0 0.32171,-0.1177 0.410617,-0.26155 z m 3.970627,-4.23637 c 0.0899,-0.14552 0.0374,-0.26458 -0.11668,-0.26458 -0.15411,0 -0.2802,0.11906 -0.2802,0.26458 0,0.14552 0.0525,0.26459 0.11668,0.26459 0.0642,0 0.19026,-0.11907 0.2802,-0.26459 z m 23.75949,3.175 c 0,-0.80036 0.0496,-1.12778 0.11022,-0.7276 0.0606,0.40018 0.0606,1.05502 0,1.45521 -0.0606,0.40018 -0.11022,0.0728 -0.11022,-0.72761 z m 4.70446,0 c 0.38571,-0.8099 0.50792,-0.96 0.50792,-0.62383 0,0.14196 -0.18516,0.48923 -0.41147,0.7717 -0.38798,0.48427 -0.39349,0.47583 -0.0965,-0.14787 z m -3.36777,0.0635 c 0.0961,-0.15557 0.0414,-0.32733 -0.12161,-0.38168 -0.16304,-0.0543 -0.25279,-0.3254 -0.19946,-0.60235 0.0833,-0.43275 0.14198,-0.40477 0.4171,0.19906 0.23374,0.513 0.24038,0.75188 0.0246,0.88522 -0.17109,0.10574 -0.22189,0.0635 -0.12067,-0.10025 z m -0.92058,-1.71712 c -0.14772,-0.28937 -0.11605,-1.21708 0.0383,-1.12169 0.3059,0.18905 0.50374,1.18783 0.23529,1.18783 -0.13189,0 -0.255,-0.0298 -0.27358,-0.0661 z m 6.51097,-4.4175 c -0.43376,-0.42872 -1.47731,-1.19135 -2.319,-1.69475 -0.94065,-0.56258 -1.39944,-0.977025 -1.19063,-1.075538 0.18685,-0.08815 0.0717,-0.110522 -0.25596,-0.04972 -0.32762,0.0608 -0.53404,0.01082 -0.4587,-0.111076 0.0753,-0.121895 0.016,-0.296411 -0.13193,-0.387815 -0.14789,-0.0914 -0.2689,-0.05124 -0.2689,0.08924 0,0.158361 -0.35444,0.146651 -0.93267,-0.03081 -0.66822,-0.20508 -0.83702,-0.354423 -0.59532,-0.526678 0.21814,-0.155458 0.0458,-0.190601 -0.48773,-0.09944 -0.4538,0.07755 -1.16817,0.04905 -1.5875,-0.06332 l -0.7624,-0.204308 0.82899,-0.166197 c 0.95432,-0.191322 2.74288,0.22777 2.74288,0.642707 0,0.15425 0.17249,0.214265 0.38331,0.133366 0.52697,-0.202217 2.04785,0.589422 1.82503,0.949949 -0.11202,0.18126 -0.0235,0.22932 0.23769,0.12908 0.49454,-0.189768 2.94255,1.28642 2.72284,1.64192 -0.0827,0.13386 -0.0294,0.31816 0.11849,0.40956 0.14789,0.0914 0.26889,0.0194 0.26889,-0.16013 0,-0.18001 0.29657,-0.0477 0.66146,0.29509 0.3638,0.34178 0.66146,0.71972 0.66146,0.83987 0,0.45782 -0.70253,0.18792 -1.4603,-0.56101 z m 0.93113,0.14633 c 0,-0.0572 -0.18477,-0.17489 -0.41061,-0.26156 -0.23546,-0.0904 -0.34167,-0.046 -0.24897,0.10399 0.15538,0.2514 0.65958,0.37185 0.65958,0.15757 z m -1.98349,-1.4821 c -0.0895,-0.14474 -0.4239,-0.39085 -0.74322,-0.54692 -0.50017,-0.24447 -0.48897,-0.20883 0.0809,0.25728 0.74076,0.6059 0.90115,0.67604 0.66234,0.28964 z"
         style="fill:#ffffff;fill-opacity:1;stroke-width:0.264583" />
      <path
         id="path851"
         d="m 121.84944,124.84064 c 0,-1.52797 0.0437,-2.15305 0.0972,-1.38907 0.0534,0.76399 0.0534,2.01414 0,2.77813 -0.0534,0.76398 -0.0972,0.1389 -0.0972,-1.38906 z m 0.0224,-16.0073 c 7e-5,-5.67531 0.0351,-7.95938 0.0779,-5.0757 0.0427,2.88367 0.0427,7.52711 -1.4e-4,10.31875 -0.0428,2.79164 -0.0778,0.43227 -0.0777,-5.24305 z m 4.42919,-0.52916 c 0.005,-0.43656 0.0647,-0.58313 0.13177,-0.3257 0.0671,0.25743 0.0627,0.61462 -0.01,0.79375 -0.0725,0.17914 -0.12736,-0.0315 -0.12197,-0.46805 z m 4.79911,-7.66128 c 0,-0.21188 0.10116,-0.32272 0.2248,-0.2463 0.12364,0.0764 0.15631,0.24977 0.0726,0.38523 -0.21395,0.34618 -0.29738,0.3072 -0.29738,-0.13893 z M 117.9843,97.666007 c 0.32912,-0.06329 0.80537,-0.06088 1.05834,0.0053 0.25296,0.06622 -0.0163,0.118003 -0.5984,0.115066 -0.58208,-0.0029 -0.78905,-0.05712 -0.45994,-0.120405 z m 6.08233,0.0119 c 0.18191,-0.0734 0.47956,-0.0734 0.66146,0 0.1819,0.0734 0.0331,0.133453 -0.33073,0.133453 -0.3638,0 -0.51263,-0.06005 -0.33073,-0.133453 z"
         style="fill:#ffffff;fill-opacity:1;stroke-width:0.264583" />
    </g>
  </g>
</svg>
